# xmcd CD database file
#
# Track frame offsets:
#	150
#	19212
#	40610
#	63887
#	82620
#	101290
#	118715
#	138760
#	156300
#	176622
#	191055
#
# Disc length: 2759 seconds
#
# Revision: 0
# Processed by: cddbd v1.4PL0 Copyright (c) Steve Scherf et al.
# Submitted via: CDex 1.50beta8
#
DISCID=7f0ac50b
DTITLE=Grupo Merenglass - Donde Estan Las Mujers?
DYEAR=1997
DGENRE=Merengue
TTITLE0=Prendido A Un Sentimiento
TTITLE1=Las Mujeres Pieden
TTITLE2=Cachamba (Hay Un Hoyo)
TTITLE3=El Muneco
TTITLE4=Mexico Lindo
TTITLE5=Donde Estan Las Mujeres
TTITLE6=Me Dicen Papi
TTITLE7=La Careta
TTITLE8=Todas Estan Buenas
TTITLE9=Ella Se Llamaba
TTITLE10=Merngue Azteca-Cielito Lindo
EXTD=YEAR: 1997
EXTT0=
EXTT1=
EXTT2=
EXTT3=
EXTT4=
EXTT5=
EXTT6=
EXTT7=
EXTT8=
EXTT9=
EXTT10=
PLAYORDER=
